<svg xmlns="http://www.w3.org/2000/svg" viewBox="0 0 346.33 346.33"><defs><style>.cls-1{fill:#122143;}.cls-2{fill:#fff;}</style></defs><title>Asset 32</title><g id="Layer_2" data-name="Layer 2"><g id="Layer_1-2" data-name="Layer 1"><path class="cls-1" d="M173.17,346.33A173.21,173.21,0,0,1,105.76,13.61,173.21,173.21,0,0,1,240.57,332.72,172.09,172.09,0,0,1,173.17,346.33Z"/><polygon class="cls-2" points="272.14 116.04 259.07 133.79 117.21 133.79 125.01 147.15 133.18 161.14 150.59 161.14 142.42 147.15 249.24 147.15 173.21 250.44 134.79 198.24 194.17 198.24 186.37 184.89 178.2 170.9 160.79 170.9 168.96 184.89 124.96 184.89 74.19 115.91 45.74 115.77 96.58 184.89 106.41 198.24 159.01 269.74 173.22 289.05 187.42 269.74 277.61 147.15 286.39 135.22 300.59 115.91 272.14 116.04"/></g></g></svg>